/* XPM */
static char * close_inactive_xpm[] = {
"30 30 37 1",
" 	c #2B2B2B",
".	c #343538",
"+	c #66686F",
"@	c #77787E",
"#	c #34353A",
"$	c #808186",
"%	c #565961",
"&	c #3C3E44",
"*	c #B5B5B6",
"=	c #E9E9E9",
"-	c #7C7E85",
";	c #9EA0A5",
">	c #98989A",
",	c #585B64",
"'	c #BEBFC2",
")	c #7B7E85",
"!	c #9C9DA0",
"~	c #F3F3F2",
"{	c #4E515A",
"]	c #BFC0C2",
"^	c #83858B",
"/	c #52545D",
"(	c #A0A1A6",
"_	c #9E9FA4",
":	c #41434C",
"<	c #BCBDBF",
"[	c #EDEDEC",
"}	c #D5D5D5",
"|	c #6C6E75",
"1	c #FFFFFF",
"2	c #7E8087",
"3	c #A4A5A9",
"4	c #717279",
"5	c #454951",
"6	c #AEAFB0",
"7	c #929395",
"8	c #6A6D73",
"                             .",
"                              ",
"                              ",
"                              ",
"                              ",
"                              ",
"                              ",
"                              ",
"                              ",
"          +@      #$%         ",
"         &*=-     ;=>         ",
"          ,'=)   !~;{         ",
"           #]=^/(~_           ",
"            :<[}[_            ",
"             |=1}{            ",
"             (~=[2            ",
"            _[34'=-           ",
"           !~_  5'=-          ",
"         &6~!    #'=7         ",
"          $!      /38         ",
"                              ",
"                              ",
"                              ",
"                              ",
"                              ",
"                              ",
"                              ",
"                              ",
"                              ",
"                              "};
