/* XPM */
static char *close_pressed[] = {
/* columns rows colors chars-per-pixel */
"30 30 44 1 ",
"  c #D71616",
". c #D91212",
"X c #D91717",
"o c #D71B1B",
"O c #D81919",
"+ c #DA1D1D",
"@ c #CD2020",
"# c #D32222",
"$ c #D92121",
"% c #D82626",
"& c #D62A2A",
"* c #D62E2E",
"= c #DB2929",
"- c #DB2C2C",
"; c #D63232",
": c #DA3434",
"> c #D93838",
", c #D64141",
"< c #D64747",
"1 c #D74B4B",
"2 c #D95454",
"3 c #D85C5C",
"4 c #D85D5D",
"5 c #D36767",
"6 c #D46C6C",
"7 c #DF7D7D",
"8 c #E26262",
"9 c #E06767",
"0 c #DF8585",
"q c #DC8A8A",
"w c #DC9191",
"e c #E78686",
"r c #E68888",
"t c #E88989",
"y c #ECA9A9",
"u c #EDACAC",
"i c #E8BBBB",
"p c #E9BEBE",
"a c #F2DBDB",
"s c #F2DCDC",
"d c #F5DDDD",
"f c #F6E3E3",
"g c #F6E7E7",
"h c white",
/* pixels */
"XXXXXXXXXXXXXXXXXXXXXXXXXXXXX@",
"XXXXXXXXXXXXXXXXXXXXXXXXXXXXXX",
"XXXXXXXXXXXXXXXXXXXXXXXXXXXXXX",
"XXXXXXXXXXXXXXXXXXXXXXXXXXXXXX",
"XXXXXXXXXXXXXXXXXXXXXXXXXXXXXX",
"XXXXXXXXXXXXXXXXXXXXXXXXXXXXXX",
"XXXXXXXXXXXXXXXXXXXXXXXXXXXXXX",
"XXXXXXXXXXXXXXXXXXXXXXXXXXXXXX",
"XXXXXXXXXXXXXXXXXXX XXXXXXXXXX",
"XXXXXXXXXO,2OXXXXX%3;XXXXXXXXX",
"XXXXXXXXX#wd8XXXX+td6oXXXXXXXX",
"XXXXXXXXXo>ud8XX+egt*OXXXXXXXX",
"XXXXXXXXXXX=ud9*rgr+XXXXXXXXXX",
"XXXXXXXXXXXX-ydpfe+XXXXXXXXXXX",
"XXXXXXXXXXXX.<ahi&XXXXXXXXXXXX",
"XXXXXXXXXXXX+rgsd9XXXXXXXXXXXX",
"XXXXXXXXXXX+tfr1yd8XXXXXXXXXXX",
"XXXXXXXXXO$ege+.-ud8OXXXXXXXXX",
"XXXXXXXXX#qgr+XXX=ud5oXXXXXXXX",
"XXXXXXXXXo37$XXXXX:0<XXXXXXXXX",
"XXXXXXXXXXooXXXXXXOoXXXXXXXXXX",
"XXXXXXXXXXXXXXXXXXXXXXXXXXXXXX",
"XXXXXXXXXXXXXXXXXXXXXXXXXXXXXX",
"XXXXXXXXXXXXXXXXXXXXXXXXXXXXXX",
"XXXXXXXXXXXXXXXXXXXXXXXXXXXXXX",
"XXXXXXXXXXXXXXXXXXXXXXXXXXXXXX",
"XXXXXXXXXXXXXXXXXXXXXXXXXXXXXX",
"XXXXXXXXXXXXXXXXXXXXXXXXXXXXXX",
"XXXXXXXXXXXXXXXXXXXXXXXXXXXXXX",
"XXXXXXXXXXXXXXXXXXXXXXXXXXXXXX"
};
