/* XPM */
static char * hide_prelight_xpm[] = {
"30 30 13 1",
" 	c #444444",
".	c #4E5159",
"+	c #AAAAAB",
"@	c #C2C3C4",
"#	c #C2C2C3",
"$	c #979799",
"%	c #50525B",
"&	c #B8B8B8",
"*	c #D5D5D5",
"=	c #D3D3D3",
"-	c #A3A3A4",
";	c #51545D",
">	c #454850",
"                              ",
"                              ",
"                              ",
"                              ",
"                              ",
"                              ",
"                              ",
"                              ",
"                              ",
"                              ",
"                              ",
"                              ",
"                              ",
"                              ",
"                              ",
"                              ",
"                              ",
"                              ",
"         .+@########$         ",
"         %&*=======*-         ",
"          .;;;;;;;;;>         ",
"                              ",
"                              ",
"                              ",
"                              ",
"                              ",
"                              ",
"                              ",
"                              ",
"                              "};
