/* XPM */
static char * maximize_prelight_xpm[] = {
"30 30 24 1",
" 	c #444444",
".	c #414348",
"+	c #A3A3A4",
"@	c #B9B9BA",
"#	c #939395",
"$	c #5D6068",
"%	c #D4D4D4",
"&	c #F1F1F1",
"*	c #DCDCDC",
"=	c #DBDBDB",
"-	c #F5F5F5",
";	c #D3D3D3",
">	c #C8C8C9",
",	c #686B72",
"'	c #62656D",
")	c #60636B",
"!	c #787A80",
"~	c #C3C3C4",
"{	c #C3C4C5",
"]	c #676A71",
"^	c #E9E9E9",
"/	c #C5C6C6",
"(	c #53565D",
"_	c #A3A4A5",
"                              ",
"                              ",
"                              ",
"                              ",
"                              ",
"                              ",
"                              ",
"                              ",
"                              ",
"         .+@@@@@@@@@#         ",
"         $%&**====*-@         ",
"         $;>,'''')!*@         ",
"         $;~      )=@         ",
"         $;~      '=@         ",
"         $;~      '=@         ",
"         $;~      '=@         ",
"         $;{      '=@         ",
"         $;~.     ]=@         ",
"         $%^//~~~~>&@         ",
"         (@%;;;;;;;%_         ",
"          ($$$$$$$$$.         ",
"                              ",
"                              ",
"                              ",
"                              ",
"                              ",
"                              ",
"                              ",
"                              ",
"                              "};
